<svg xmlns="http://www.w3.org/2000/svg" viewBox="0 0 354 143.28"><defs><style>.cls-1,.cls-2{fill:#fff;}.cls-1{fill-rule:evenodd;}</style></defs><g id="Camada_2" data-name="Camada 2"><g id="Camada_2-2" data-name="Camada 2"><path class="cls-1" d="M199.91,102.53H209a2.57,2.57,0,0,0,.2-1,2.27,2.27,0,0,0-.2-1h-9.07V91.64h10.37a2.45,2.45,0,0,0,.2-1,3.05,3.05,0,0,0-.2-1H197.5v23.21a2.93,2.93,0,0,0,1.21.2,2.85,2.85,0,0,0,1.2-.2Z"/><path class="cls-1" d="M216.89,89.86a4.23,4.23,0,0,0-1.34-.17,3.91,3.91,0,0,0-1.33.17v2.37a4.13,4.13,0,0,0,1.33.16,4.48,4.48,0,0,0,1.34-.16Zm-.17,6.24a3.19,3.19,0,0,0-1.17-.17,2.82,2.82,0,0,0-1.17.17v16.78a3,3,0,0,0,1.17.16,3.37,3.37,0,0,0,1.17-.16Z"/><path class="cls-1" d="M234.77,100.49c0-2.93-1.82-4.88-5-4.88a6.68,6.68,0,0,0-5.4,2.54V96.1a3.16,3.16,0,0,0-1.16-.17,3,3,0,0,0-1.18.17v16.78a3.2,3.2,0,0,0,1.18.16,3.34,3.34,0,0,0,1.16-.16V100.52a5.29,5.29,0,0,1,4.56-3c2.34,0,3.51,1.14,3.51,3.38v11.94a3.17,3.17,0,0,0,1.17.16,3.59,3.59,0,0,0,1.17-.16Z"/><path class="cls-1" d="M240.07,96.72a2.5,2.5,0,0,0,.16,1,1.63,1.63,0,0,0,.55.72,14.33,14.33,0,0,1,4.56-.81c2.66,0,3.84,1.2,3.84,4v1.76a36.87,36.87,0,0,0-4.27-.26c-4.09,0-6.14,1.66-6.14,5.07s2,5.2,5,5.2c2.6,0,4.55-1,5.46-2.92l.36,2.44a2.51,2.51,0,0,0,.94.16,2.11,2.11,0,0,0,.94-.16v-10.7c0-4.33-1.23-6.57-5.88-6.57A15,15,0,0,0,240.07,96.72Zm9.11,8.32v1.3c0,2.93-1.76,5.14-4.62,5.14-2.05,0-3.35-1-3.35-3.32s1.33-3.38,4-3.38C246.8,104.78,248.42,105,249.18,105Z"/><path class="cls-1" d="M269.37,100.49c0-2.93-1.83-4.88-5-4.88a6.67,6.67,0,0,0-5.4,2.54V96.1a3.19,3.19,0,0,0-1.17-.17,3,3,0,0,0-1.17.17v16.78a3.17,3.17,0,0,0,1.17.16,3.37,3.37,0,0,0,1.17-.16V100.52a5.27,5.27,0,0,1,4.55-3c2.34,0,3.51,1.14,3.51,3.38v11.94a3.17,3.17,0,0,0,1.17.16,3.69,3.69,0,0,0,1.18-.16Z"/><path class="cls-1" d="M281.1,97.59a7.26,7.26,0,0,1,3,.56,2.3,2.3,0,0,0,.72-1.76,8.4,8.4,0,0,0-4.1-.78c-4.55,0-7,3.09-7,8.88s2.44,8.87,7,8.87a8.67,8.67,0,0,0,4.45-1,2.35,2.35,0,0,0-.75-1.73,7.75,7.75,0,0,1-3.15.62c-3.51,0-5.1-2.14-5.1-6.79S277.62,97.59,281.1,97.59Z"/><path class="cls-1" d="M300.93,105.23a13.73,13.73,0,0,0,.37-3.35c0-3.93-2.18-6.27-6.12-6.27-4.16,0-7,2.63-7,8.78,0,5.88,2.34,9,7,9a8.85,8.85,0,0,0,5.27-1.43,2.45,2.45,0,0,0-.84-1.72,7.28,7.28,0,0,1-4,1.07c-3.16,0-4.81-1.59-5-6ZM299,101.62a14.54,14.54,0,0,1-.1,1.86h-8.26c.19-4.23,1.95-6,4.55-6C298,97.53,299,99.41,299,101.62Z"/><path class="cls-1" d="M308.22,89.86a4.2,4.2,0,0,0-1.33-.17,4,4,0,0,0-1.34.17v2.37a4.24,4.24,0,0,0,1.34.16,4.44,4.44,0,0,0,1.33-.16Zm-.16,6.24a3.19,3.19,0,0,0-1.17-.17,2.77,2.77,0,0,0-1.17.17v16.78a2.92,2.92,0,0,0,1.17.16,3.37,3.37,0,0,0,1.17-.16Z"/><path class="cls-1" d="M315.7,98.76V96.1a3,3,0,0,0-1.17-.17,2.94,2.94,0,0,0-1.17.17v16.78a3.11,3.11,0,0,0,1.17.16,3.17,3.17,0,0,0,1.17-.16V101c1-2,2.4-3.25,3.9-3.25a3.71,3.71,0,0,1,2.21.65,2.74,2.74,0,0,0,1.07-2,5.09,5.09,0,0,0-2.79-.78C318.76,95.64,317.06,96.26,315.7,98.76Z"/><path class="cls-1" d="M325.32,104.49c0,6.44,2.6,8.87,7,8.87s7-2.43,7-8.87-2.6-8.88-7-8.88S325.32,98.05,325.32,104.49Zm11.51,0c0,5.43-1.75,7-4.55,7s-4.55-1.59-4.55-7,1.75-7,4.55-7S336.83,99.06,336.83,104.49Z"/><path class="cls-1" d="M342.88,100.55c0,3.09,2.44,4,4.71,4.68,2.05.59,4.07,1,4.07,3.19s-1.53,2.89-3.74,2.89a13.94,13.94,0,0,1-4.42-.81,2.2,2.2,0,0,0-.65,1.76,11.37,11.37,0,0,0,5.2,1.1c4,0,5.95-1.88,5.95-5,0-3.35-2.47-4.2-4.78-4.91-2.05-.62-4.06-1.14-4.06-3s1.33-2.86,3.87-2.86a11.42,11.42,0,0,1,3.47.56,2.18,2.18,0,0,0,.65-1.73,9.86,9.86,0,0,0-4.38-.81C344.8,95.61,342.88,97.63,342.88,100.55Z"/><path class="cls-1" d="M196.34,63.26c0,4.71,4,5.56,7.44,6.63,2.57.75,4.81,1.59,4.81,4.42s-2,4.33-5.62,4.33a21.28,21.28,0,0,1-6-1,3.37,3.37,0,0,0-.61,1.92,16.76,16.76,0,0,0,6.79,1.3c5.11,0,7.94-2.41,7.94-6.57,0-4.39-3.19-5.63-6.35-6.6s-6-1.59-6-4.55c0-2.67,1.82-4.26,5.63-4.26a20.66,20.66,0,0,1,5.17.68,3,3,0,0,0,.65-1.89,19.79,19.79,0,0,0-6.15-.87C199,56.79,196.34,59.35,196.34,63.26Z"/><path class="cls-1" d="M227.29,72.72a14.09,14.09,0,0,0,.36-3.35c0-3.94-2.18-6.28-6.11-6.28-4.17,0-7,2.64-7,8.78,0,5.89,2.35,9,7,9a8.85,8.85,0,0,0,5.27-1.43,2.5,2.5,0,0,0-.85-1.73,7.24,7.24,0,0,1-4,1.08c-3.15,0-4.81-1.6-5-6Zm-1.95-3.61a14.18,14.18,0,0,1-.1,1.85H217c.2-4.23,2-5.95,4.56-5.95C224.33,65,225.34,66.9,225.34,69.11Z"/><path class="cls-1" d="M234.31,66.25V63.58a3.11,3.11,0,0,0-1.17-.16,3.17,3.17,0,0,0-1.17.16V80.36a3.17,3.17,0,0,0,1.17.16,3.11,3.11,0,0,0,1.17-.16V68.49c1-1.95,2.41-3.25,3.91-3.25a3.75,3.75,0,0,1,2.21.65,2.77,2.77,0,0,0,1.07-2,5.08,5.08,0,0,0-2.8-.78C237.37,63.13,235.68,63.74,234.31,66.25Z"/><path class="cls-1" d="M245.37,63.58a3.6,3.6,0,0,0-1.24-.16,3.78,3.78,0,0,0-1.23.16l6.17,16.78a4.73,4.73,0,0,0,1.34.16,5.24,5.24,0,0,0,1.33-.16l6.05-16.78a3.28,3.28,0,0,0-1.14-.16,2.87,2.87,0,0,0-1.07.16l-4.07,11.16a33.38,33.38,0,0,0-1,3.31h-.1a27.93,27.93,0,0,0-1-3.35Z"/><path class="cls-1" d="M263.87,57.34a4.36,4.36,0,0,0-1.33-.16,4.17,4.17,0,0,0-1.34.16v2.37a3.94,3.94,0,0,0,1.34.17,4.12,4.12,0,0,0,1.33-.17Zm-.16,6.24a3.37,3.37,0,0,0-1.17-.16,3,3,0,0,0-1.18.16V80.36a3,3,0,0,0,1.18.16,3.37,3.37,0,0,0,1.17-.16Z"/><path class="cls-1" d="M275.09,80.85a9.1,9.1,0,0,0,4.58-1,2.32,2.32,0,0,0-.75-1.66,7.45,7.45,0,0,1-3.15.65c-3.51,0-5.11-2.24-5.11-6.89s1.5-7,5-7a7.26,7.26,0,0,1,3,.56,2.33,2.33,0,0,0,.71-1.69,8.25,8.25,0,0,0-4.09-.79c-4.56,0-7,3.09-7,8.88,0,5.07,1.88,8.1,5.39,8.75l-.42,2.53.33.36h1.13c1.37,0,2,.59,2,1.66,0,1.33-.88,1.76-2.24,1.76a5.7,5.7,0,0,1-2.28-.52,1.34,1.34,0,0,0-.55,1.13,5.7,5.7,0,0,0,2.92.75c2.44,0,3.81-.94,3.81-3.09,0-1.75-1-2.89-3.51-2.89Z"/><path class="cls-1" d="M282.73,72c0,6.44,2.6,8.88,6.95,8.88s7-2.44,7-8.88-2.6-8.88-7-8.88S282.73,65.53,282.73,72Zm11.51,0c0,5.43-1.76,7-4.56,7s-4.55-1.6-4.55-7,1.76-7,4.55-7S294.24,66.54,294.24,72Z"/><path class="cls-1" d="M300.28,68c0,3.09,2.44,4,4.72,4.68,2.05.59,4.06,1,4.06,3.19s-1.53,2.89-3.73,2.89A14,14,0,0,1,300.9,78a2.21,2.21,0,0,0-.65,1.75,11.29,11.29,0,0,0,5.2,1.11c4,0,6-1.89,6-5,0-3.35-2.47-4.19-4.78-4.91-2.05-.62-4.07-1.14-4.07-3s1.33-2.86,3.87-2.86a11.63,11.63,0,0,1,3.48.55,2.22,2.22,0,0,0,.65-1.72,9.83,9.83,0,0,0-4.39-.82C302.2,63.09,300.28,65.11,300.28,68Z"/><path class="cls-2" d="M15.83,143.25H0V38.53C0,26.31,2.88,15.16,10.25,8.15A29.84,29.84,0,0,1,29.75.09L49.09,0,43.72,12.84h-12C19.09,13.32,15.64,25,15.64,38V64.54h41.2v-26c0-12.22,2.88-23.37,10.25-30.38A29.87,29.87,0,0,1,86.6.09L105.93,0l-5.37,12.84h-12C75.93,13.32,72.49,25,72.49,38V64.54h40.06c7.59-7.5,18.19-12.14,31-12.7.48-.05,28.4,0,28.4,0l-4.75,12.54h-21c-20,0-30.75,15-30.75,33.12,0,20.14,13,32.91,30.21,32.91h21.2l4.85,12.84s-28.51.05-29,0c-1.28-.06-2.47-.13-3.59-.23-24.17-1.59-39.67-19.28-39.67-44.8A50.35,50.35,0,0,1,104,76.59H72.67v66.66H56.84V76.59h-41Z"/></g></g></svg>